<?xml version="1.0" standalone="no"?>
<!DOCTYPE svg PUBLIC "-//W3C//DTD SVG 20010904//EN"
 "http://www.w3.org/TR/2001/REC-SVG-20010904/DTD/svg10.dtd">
<svg version="1.0" xmlns="http://www.w3.org/2000/svg"
 width="567.000000pt" height="567.000000pt" viewBox="0 0 567.000000 567.000000"
 preserveAspectRatio="xMidYMid meet">

<g transform="translate(0.000000,567.000000) scale(0.100000,-0.100000)"
fill="#000000" stroke="none">
<path d="M2382 4710 l-254 -5 -79 -265 c-371 -1236 -703 -2273 -938 -2938 -40
-112 -71 -205 -69 -207 2 -2 163 -5 358 -6 l355 -1 33 109 c88 286 226 720
477 1498 388 1204 577 1810 567 1820 -3 3 -48 4 -101 3 -53 -1 -210 -5 -349
-8z"/>
<path d="M3700 4714 c0 -1 -242 -764 -539 -1695 -296 -932 -541 -1704 -545
-1716 l-7 -23 355 0 354 0 16 48 c77 236 1056 3366 1056 3375 0 9 -86 12 -345
12 -190 0 -345 -1 -345 -1z"/>
</g>
</svg>
